<svg xmlns="http://www.w3.org/2000/svg" width="0" height="0" display="none" viewBox="0 0 250.11 79.32"><title>depone</title><g id="depone-logo" data-name="Depone Netzgestaltung"><path fill="currentColor" d="M236.7,49.89a13.12,13.12,0,0,1-19.58-1.07l23.44-8.4s0,.08,0,.13a13.16,13.16,0,0,1-3.86,9.35ZM214.2,40.54a13.16,13.16,0,0,1,23.45-8.27l-23.44,8.4s0-.09,0-.13ZM145.93,53.76a13.22,13.22,0,1,1,13.18-13.22,13.22,13.22,0,0,1-13.18,13.22Zm-40.73,0a13.22,13.22,0,1,1,13.18-13.22A13.21,13.21,0,0,1,105.2,53.76Zm-40.73,0a13.14,13.14,0,0,1-10.22-4.89l23.39-8.54c0,.07,0,.14,0,.21A13.21,13.21,0,0,1,64.48,53.77ZM51.29,40.54a13.16,13.16,0,0,1,23.4-8.33L51.31,40.75c0-.07,0-.14,0-.21ZM23.75,53.77A13.22,13.22,0,1,1,36.92,40.54,13.22,13.22,0,0,1,23.75,53.77ZM241.66,40s7.59-2.76,8-2.94a.77.77,0,0,0,.48-.86A23.19,23.19,0,0,0,207,29.33a23.18,23.18,0,0,0-40.73,0,23.18,23.18,0,0,0-40.72,0,23.18,23.18,0,0,0-40.73,0A23.15,23.15,0,0,0,47,25.24V3.76A2.88,2.88,0,0,0,44.11.88H40a2.88,2.88,0,0,0-2.87,2.88V21.54a23,23,0,0,0-13.42-4.31A23.31,23.31,0,1,0,44.11,51.75,23.18,23.18,0,0,0,80.91,57c.38-.38.72-.78,1.06-1.18V77.32a2.88,2.88,0,0,0,2.87,2.88h4.07a2.88,2.88,0,0,0,2.87-2.88V59.54a23,23,0,0,0,13.41,4.31,23.25,23.25,0,0,0,20.36-12.1,23.14,23.14,0,0,0,37.85,4.09V61a2.88,2.88,0,0,0,2.87,2.88h4.31A2.88,2.88,0,0,0,173.47,61V40.54a13.18,13.18,0,1,1,26.36,0V61a2.88,2.88,0,0,0,2.87,2.88H207A2.88,2.88,0,0,0,209.89,61V55.84a23.19,23.19,0,0,0,40.73-15.3c0-.18-.11-.53-.69-.53Z" transform="translate(-0.51 -0.88)" /></g></svg>
