<svg width="251px" height="113px" viewBox="0 0 251 113" version="1.1" xmlns="http://www.w3.org/2000/svg" xmlns:xlink="http://www.w3.org/1999/xlink">
    <g id="Depone Logo" stroke="none" stroke-width="1" fill="none" fill-rule="evenodd">
        <g id="Depone Netzgestaltung" transform="translate(0.000000, 1.000000)" fill="#4D4D4C">
            <g id="Logo Group">
                <path d="M236.698276,48.8861299 C234.204023,51.3857922 230.895115,52.7639221 227.382184,52.7639221 C223.237069,52.7639221 219.53592,50.8279091 217.119253,47.8150519 L240.557471,39.4122078 C240.557471,39.454013 240.563218,39.4958182 240.563218,39.5390649 C240.563218,43.0651169 239.191092,46.3821429 236.698276,48.8861299 L236.698276,48.8861299 Z M214.204023,39.5390649 C214.204023,32.2491039 220.116379,26.3185325 227.382184,26.3185325 C231.530172,26.319974 235.231322,28.2545455 237.649425,31.2688442 L214.212644,39.6716883 C214.20977,39.627 214.204023,39.5837532 214.204023,39.5390649 L214.204023,39.5390649 Z M145.928161,52.7639221 C138.66092,52.7639221 132.748563,46.8333506 132.748563,39.5419481 C132.748563,32.2505455 138.66092,26.3185325 145.928161,26.3185325 C153.196839,26.3185325 159.106322,32.2505455 159.106322,39.5419481 C159.106322,46.8333506 153.196839,52.7639221 145.928161,52.7639221 L145.928161,52.7639221 Z M105.202586,52.7639221 C97.9367816,52.7639221 92.0244253,46.8333506 92.0244253,39.5419481 C92.0244253,32.2505455 97.9367816,26.3185325 105.202586,26.3185325 C112.469828,26.3185325 118.383621,32.2505455 118.383621,39.5419481 C118.383621,46.8333506 112.469828,52.7639221 105.202586,52.7639221 L105.202586,52.7639221 Z M64.4755747,52.7653636 C60.3563218,52.7653636 56.6738506,50.8567403 54.2557471,47.8755974 L77.6451149,39.3329221 C77.6451149,39.4035584 77.6537356,39.4713117 77.6537356,39.5390649 C77.6537356,46.8333506 71.7442529,52.7653636 64.4755747,52.7653636 L64.4755747,52.7653636 Z M51.2945402,39.5390649 C51.2945402,32.2505455 57.2068966,26.319974 64.4755747,26.319974 C68.5948276,26.319974 72.2772989,28.2285974 74.6954023,31.2068571 L51.3060345,39.7480909 C51.3060345,39.6774545 51.2945402,39.6097013 51.2945402,39.5390649 L51.2945402,39.5390649 Z M23.7456897,52.7653636 C16.4784483,52.7653636 10.566092,46.8347922 10.566092,39.5433896 C10.566092,32.251987 16.4784483,26.319974 23.7456897,26.319974 C31.0143678,26.319974 36.9238506,32.251987 36.9238506,39.5433896 C36.9238506,46.8347922 31.0143678,52.7653636 23.7456897,52.7653636 L23.7456897,52.7653636 Z M241.662356,39.0128961 C241.662356,39.0128961 249.248563,36.2537532 249.711207,36.0735584 C250.176724,35.8933636 250.229885,35.4262987 250.188218,35.2115065 C248.159483,24.4228831 238.718391,16.2290649 227.382184,16.2276234 C218.617816,16.2276234 210.977011,21.1245974 207.020115,28.3323896 C203.063218,21.1245974 195.41954,16.2276234 186.655172,16.2276234 C177.892241,16.2276234 170.25,21.1245974 166.29023,28.3309481 C162.333333,21.1245974 154.692529,16.2276234 145.928161,16.2276234 C137.16523,16.2276234 129.522989,21.1217143 125.567529,28.3295065 C121.610632,21.1217143 113.965517,16.2276234 105.202586,16.2276234 C96.4382184,16.2276234 88.7945402,21.1245974 84.8405172,28.3352727 C80.8836207,21.126039 73.2399425,16.2276234 64.4727011,16.2276234 C57.4971264,16.2276234 51.2442529,19.3428312 46.9813218,24.2426883 L46.9813218,2.76490909 C46.9813218,1.17198701 45.6968391,-0.118207792 44.1077586,-0.118207792 L40.0359195,-0.118207792 C38.4511494,-0.118207792 37.1623563,1.17198701 37.1623563,2.76490909 L37.1623563,20.5422078 C33.3692529,17.8364026 28.7471264,16.2290649 23.7456897,16.2290649 C10.9324713,16.2290649 0.50862069,26.6875714 0.50862069,39.5433896 C0.50862069,52.3977662 10.9324713,62.8548312 23.7456897,62.8548312 C32.512931,62.8548312 40.1537356,57.9564156 44.1106322,50.7500649 C48.0704023,57.9564156 55.7112069,62.8548312 64.4784483,62.8548312 C70.6853448,62.8548312 76.5201149,60.4286883 80.9066092,56.0247273 C81.2816092,55.647039 81.625,55.2462857 81.9698276,54.8484156 L81.9698276,76.3161039 C81.9698276,77.9104675 83.2571839,79.1992208 84.8433908,79.1992208 L88.9152299,79.1992208 C90.5028736,79.1992208 91.7887931,77.9104675 91.7887931,76.3161039 L91.7887931,58.5416883 C95.5818966,61.2474935 100.204023,62.8548312 105.202586,62.8548312 C113.965517,62.8548312 121.607759,57.9592987 125.567529,50.7558312 C129.522989,57.9592987 137.16523,62.8548312 145.928161,62.8548312 C152.905172,62.8548312 159.153736,59.7410649 163.416667,54.8440909 L163.416667,59.9717143 C163.416667,61.5660779 164.70546,62.8548312 166.29023,62.8548312 L170.600575,62.8548312 C172.189655,62.8548312 173.474138,61.5660779 173.474138,59.9717143 L173.474138,39.5419481 C173.474138,32.2505455 179.387931,26.3185325 186.655172,26.3185325 C193.920977,26.3185325 199.833333,32.251987 199.836207,39.5419481 L199.836207,59.9717143 C199.836207,61.5660779 201.123563,62.8548312 202.70977,62.8548312 L207.020115,62.8548312 C207.783046,62.8548312 208.512931,62.5506623 209.051724,62.0100779 C209.590517,61.4694935 209.893678,60.7386234 209.893678,59.9717143 L209.893678,54.8426494 C214.156609,59.7410649 220.408046,62.8548312 227.382184,62.8548312 C240.195402,62.8548312 250.62069,52.3963247 250.62069,39.5405065 C250.62069,39.3617532 250.510057,39.0128961 249.926724,39.0128961 L241.662356,39.0128961 L241.662356,39.0128961 Z" id="Fill-1"></path>
                <path d="M37.8132184,97.5646753 L39.5431034,97.5646753 L44.3333333,105.883909 L45.7643678,108.630078 L45.8433908,108.630078 C45.7643678,107.296636 45.6221264,105.803182 45.6221264,104.409195 L45.6221264,97.5646753 L47.2112069,97.5646753 L47.2112069,110.811156 L45.4813218,110.811156 L40.7112069,102.47174 L39.283046,99.7457532 L39.2025862,99.7457532 C39.283046,101.077753 39.4037356,102.490481 39.4037356,103.884468 L39.4037356,110.811156 L37.8132184,110.811156 L37.8132184,97.5646753" id="Fill-2"></path>
                <path d="M52.3778736,97.5646753 L59.9856322,97.5646753 L59.9856322,98.9788442 L54.0689655,98.9788442 L54.0689655,103.13774 L59.058908,103.13774 L59.058908,104.572091 L54.0689655,104.572091 L54.0689655,109.378247 L60.1867816,109.378247 L60.1867816,110.811156 L52.3778736,110.811156 L52.3778736,97.5646753" id="Fill-3"></path>
                <path d="M67.283046,98.9788442 L63.2787356,98.9788442 L63.2787356,97.5646753 L72.9583333,97.5646753 L72.9583333,98.9788442 L68.954023,98.9788442 L68.954023,110.811156 L67.283046,110.811156 L67.283046,98.9788442" id="Fill-4"></path>
                <path d="M74.8635057,109.802065 L81.8275862,98.9788442 L75.4885057,98.9788442 L75.4885057,97.5646753 L83.9022989,97.5646753 L83.9022989,98.5535844 L76.9382184,109.378247 L83.9626437,109.378247 L83.9626437,110.811156 L74.8635057,110.811156 L74.8635057,109.802065" id="Fill-5"></path>
                <path d="M93.091954,97.3210519 C94.8836207,97.3210519 96.0905172,98.1499481 96.8764368,98.9572208 L95.9094828,100.026857 C95.2456897,99.3204935 94.420977,98.7957662 93.112069,98.7957662 C90.4353448,98.7957662 88.7241379,100.857195 88.7241379,104.148273 C88.7241379,107.478273 90.2945402,109.578623 93.112069,109.578623 C94.058908,109.578623 94.9827586,109.275896 95.5071839,108.791532 L95.5071839,105.339 L92.7083333,105.339 L92.7083333,103.945013 L97.0359195,103.945013 L97.0359195,109.518078 C96.1724138,110.365714 94.7011494,111.053338 92.9310345,111.053338 C89.4698276,111.053338 86.9942529,108.508987 86.9942529,104.187195 C86.9942529,99.9273896 89.5488506,97.3210519 93.091954,97.3210519" id="Fill-6"></path>
                <path d="M101.719828,97.5646753 L109.327586,97.5646753 L109.327586,98.9788442 L103.41092,98.9788442 L103.41092,103.13774 L108.400862,103.13774 L108.400862,104.572091 L103.41092,104.572091 L103.41092,109.378247 L109.527299,109.378247 L109.527299,110.811156 L101.719828,110.811156 L101.719828,97.5646753" id="Fill-7"></path>
                <path d="M113.926724,107.923714 C114.872126,108.912623 116.179598,109.578623 117.568966,109.578623 C119.300287,109.578623 120.326149,108.710805 120.326149,107.417727 C120.326149,106.065545 119.360632,105.641727 118.112069,105.075195 L116.221264,104.24774 C114.992816,103.723013 113.543103,102.774468 113.543103,100.835571 C113.543103,98.8173896 115.316092,97.3210519 117.711207,97.3210519 C119.280172,97.3210519 120.668103,97.9884935 121.594828,98.9572208 L120.70977,100.048481 C119.903736,99.2815714 118.918103,98.7957662 117.711207,98.7957662 C116.221264,98.7957662 115.234195,99.5424935 115.234195,100.734662 C115.234195,102.006117 116.402299,102.490481 117.428161,102.935922 L119.320402,103.744636 C120.849138,104.409195 122.037356,105.318818 122.037356,107.277896 C122.037356,109.378247 120.306034,111.053338 117.528736,111.053338 C115.678161,111.053338 114.067529,110.286429 112.920977,109.09426 L113.926724,107.923714" id="Fill-8"></path>
                <path d="M128.512931,98.9788442 L124.508621,98.9788442 L124.508621,97.5646753 L134.189655,97.5646753 L134.189655,98.9788442 L130.183908,98.9788442 L130.183908,110.811156 L128.512931,110.811156 L128.512931,98.9788442" id="Fill-9"></path>
                <path d="M142.896552,105.419727 L142.271552,103.400104 C141.808908,101.926831 141.386494,100.472299 140.96408,98.9384805 L140.883621,98.9384805 C140.461207,100.472299 140.038793,101.926831 139.576149,103.400104 L138.931034,105.419727 L142.896552,105.419727 L142.896552,105.419727 Z M143.318966,106.771909 L138.508621,106.771909 L137.241379,110.811156 L135.530172,110.811156 L139.997126,97.5646753 L141.890805,97.5646753 L146.357759,110.811156 L144.587644,110.811156 L143.318966,106.771909 L143.318966,106.771909 Z" id="Fill-10"></path>
                <path d="M149.75431,97.5646753 L151.443966,97.5646753 L151.443966,109.378247 L157.199713,109.378247 L157.199713,110.811156 L149.75431,110.811156 L149.75431,97.5646753" id="Fill-11"></path>
                <path d="M161.420977,98.9788442 L157.416667,98.9788442 L157.416667,97.5646753 L167.096264,97.5646753 L167.096264,98.9788442 L163.091954,98.9788442 L163.091954,110.811156 L161.420977,110.811156 L161.420977,98.9788442" id="Fill-12"></path>
                <path d="M170.932471,97.5646753 L172.623563,97.5646753 L172.623563,105.379364 C172.623563,108.569532 173.971264,109.578623 175.681034,109.578623 C177.432471,109.578623 178.821839,108.569532 178.821839,105.379364 L178.821839,97.5646753 L180.431034,97.5646753 L180.431034,105.339 C180.431034,109.598805 178.377874,111.053338 175.681034,111.053338 C172.984195,111.053338 170.932471,109.598805 170.932471,105.339 L170.932471,97.5646753" id="Fill-13"></path>
                <path d="M185.515805,97.5646753 L187.24569,97.5646753 L192.03592,105.883909 L193.465517,108.630078 L193.545977,108.630078 C193.465517,107.296636 193.324713,105.803182 193.324713,104.409195 L193.324713,97.5646753 L194.913793,97.5646753 L194.913793,110.811156 L193.183908,110.811156 L188.413793,102.47174 L186.985632,99.7457532 L186.905172,99.7457532 C186.985632,101.077753 187.106322,102.490481 187.106322,103.884468 L187.106322,110.811156 L185.515805,110.811156 L185.515805,97.5646753" id="Fill-14"></path>
                <path d="M205.412356,97.3210519 C207.204023,97.3210519 208.41092,98.1499481 209.196839,98.9572208 L208.229885,100.026857 C207.566092,99.3204935 206.741379,98.7957662 205.431034,98.7957662 C202.755747,98.7957662 201.04454,100.857195 201.04454,104.148273 C201.04454,107.478273 202.614943,109.578623 205.431034,109.578623 C206.377874,109.578623 207.303161,109.275896 207.826149,108.791532 L207.826149,105.339 L205.028736,105.339 L205.028736,103.945013 L209.356322,103.945013 L209.356322,109.518078 C208.491379,110.365714 207.022989,111.053338 205.25,111.053338 C201.788793,111.053338 199.314655,108.508987 199.314655,104.187195 C199.314655,99.9273896 201.87069,97.3210519 205.412356,97.3210519" id="Fill-15"></path>
            </g>
        </g>
    </g>
</svg>